<svg width="41" height="40" viewBox="0 0 41 40" fill="none" xmlns="http://www.w3.org/2000/svg">
<g clip-path="url(#clip0_24_86)">
<path d="M11.7322 10.8231L9.16211 8.25293V26.7869L9.19831 27.6556C9.19831 28.0538 9.27071 28.5244 9.4155 28.995L29.7594 36.1624L34.8273 33.9181L11.7322 10.8231Z" fill="#00C4B3"/>
<path d="M34.8277 33.9182L29.7598 36.1625L9.45215 28.9951C9.85034 30.4793 10.6829 32.1444 11.6241 33.0856L18.2485 39.6739L33.0178 39.7101L34.8277 33.9182Z" fill="#22D3C5"/>
<path d="M9.23506 8.25293L1.34366 20.1986C0.692072 20.8864 1.01786 22.3344 2.06764 23.4203L6.62873 28.0176L9.48845 29.0312C9.37986 28.5606 9.27126 28.09 9.27126 27.6918L9.23506 26.8231V8.25293Z" fill="#0075C9"/>
<path d="M29.9042 8.47019C29.4336 8.3616 28.963 8.2892 28.5648 8.253L27.6598 8.2168H9.16211L34.8273 33.8819L37.0716 28.8141L29.9042 8.47019Z" fill="#0075C9"/>
<path d="M33.9949 10.6426C33.0537 9.70147 31.4247 8.83269 29.9044 8.4707L37.0718 28.8146L34.8274 33.8825L40.3297 32.1087V17.0137L33.9949 10.6426Z" fill="#00A8E1"/>
<path d="M28.8907 5.64728L24.2934 1.08619C23.2436 0.0364189 21.7957 -0.289373 21.0717 0.362211L9.12598 8.25362H27.6237L28.5287 8.28982C28.9269 8.28982 29.3975 8.36221 29.8681 8.507L28.8907 5.64728Z" fill="#00C4B3"/>
</g>
<defs>
<clipPath id="clip0_24_86">
<rect width="40" height="40" fill="white" transform="translate(0.981445)"/>
</clipPath>
</defs>
</svg>
