<svg width="41" height="40" viewBox="0 0 41 40" fill="none" xmlns="http://www.w3.org/2000/svg">
<path d="M40.9551 0H0.955078V40H40.9551V0Z" fill="#F7DF1E"/>
<path d="M27.8251 31.2498C28.6308 32.5653 29.6791 33.5323 31.533 33.5323C33.0905 33.5323 34.0854 32.7539 34.0854 31.6783C34.0854 30.3895 33.0632 29.933 31.3489 29.1831L30.4092 28.7799C27.6968 27.6244 25.8949 26.1768 25.8949 23.1164C25.8949 20.2974 28.0429 18.1514 31.3997 18.1514C33.7895 18.1514 35.5076 18.9831 36.7457 21.1609L33.8187 23.0403C33.1743 21.8847 32.4791 21.4295 31.3997 21.4295C30.2987 21.4295 29.601 22.1279 29.601 23.0403C29.601 24.1679 30.2994 24.6244 31.9121 25.3228L32.8517 25.7253C36.0454 27.0949 37.8486 28.491 37.8486 31.6301C37.8486 35.0142 35.1902 36.8682 31.62 36.8682C28.1292 36.8682 25.874 35.2047 24.7705 33.0244L27.8251 31.2498ZM14.547 31.5755C15.1375 32.6231 15.6746 33.5088 16.966 33.5088C18.201 33.5088 18.98 33.0257 18.98 31.1469V18.366H22.7387V31.1977C22.7387 35.0898 20.4568 36.8612 17.126 36.8612C14.1165 36.8612 12.3737 35.3037 11.4873 33.4279L14.547 31.5755Z" fill="black"/>
</svg>
