<svg width="38" height="40" viewBox="0 0 38 40" fill="none" xmlns="http://www.w3.org/2000/svg">
<path d="M17.4665 0.426744C18.4583 -0.140965 19.7501 -0.143529 20.7411 0.426744C25.7265 3.24378 30.7135 6.05639 35.6981 8.87513C36.6357 9.40324 37.2628 10.4466 37.2532 11.5269V28.4753C37.2602 29.6003 36.5711 30.6686 35.582 31.1847C30.613 33.9862 25.6465 36.7912 20.6783 39.5927C19.6659 40.1715 18.3482 40.1269 17.3675 39.5006C15.8777 38.637 14.3855 37.7777 12.8956 36.915C12.5912 36.7335 12.248 36.589 12.033 36.2938C12.223 36.0377 12.5628 36.0058 12.8389 35.8939C13.4607 35.6962 14.0319 35.3788 14.6031 35.0708C14.7476 34.9719 14.924 35.0098 15.0624 35.0983C16.3363 35.8287 17.599 36.5803 18.8771 37.3037C19.1498 37.4612 19.4259 37.2522 19.659 37.1222C24.5351 34.3663 29.4173 31.6208 34.2926 28.864C34.4732 28.7771 34.5731 28.5854 34.5584 28.3875C34.5618 22.7966 34.5593 17.2047 34.5601 11.6138C34.5808 11.3893 34.4509 11.1829 34.2479 11.091C29.296 8.30229 24.3468 5.50934 19.3958 2.71994C19.3101 2.66097 19.2084 2.62933 19.1043 2.62918C19.0003 2.62903 18.8985 2.66037 18.8126 2.71909C13.8616 5.50934 8.91324 8.30486 3.96228 11.0934C3.75998 11.1854 3.62421 11.3884 3.64829 11.6138C3.64915 17.2047 3.64829 22.7966 3.64829 28.3884C3.63971 28.4849 3.66091 28.5818 3.70905 28.6659C3.75719 28.75 3.82996 28.8174 3.91754 28.8589C5.23873 29.6081 6.56163 30.352 7.88367 31.0987C8.62846 31.4996 9.54292 31.7378 10.3635 31.4306C11.0876 31.1709 11.5952 30.432 11.5814 29.6631C11.5882 24.1048 11.578 18.5457 11.5865 12.9883C11.5684 12.7415 11.8025 12.5377 12.0424 12.5609C12.6772 12.5566 13.3129 12.5523 13.9477 12.5626C14.2127 12.5566 14.395 12.8223 14.3622 13.0709C14.3597 18.6644 14.3691 24.258 14.358 29.8514C14.3597 31.3421 13.7472 32.9642 12.3684 33.6936C10.6696 34.5736 8.57005 34.387 6.89185 33.5432C5.43903 32.8181 4.0526 31.9623 2.62556 31.1854C1.63389 30.6722 0.94822 29.5996 0.955201 28.4754V11.5269C0.944801 10.4243 1.59685 9.36192 2.56359 8.84151C7.53179 6.03773 12.4991 3.23181 17.4665 0.426744Z" fill="#8CC84B"/>
<path d="M21.8005 12.1666C23.9674 12.0271 26.2871 12.0839 28.2369 13.1514C29.7466 13.9694 30.5836 15.6862 30.6102 17.3634C30.568 17.5897 30.3315 17.7144 30.1156 17.6989C29.4869 17.6981 28.8581 17.7075 28.2294 17.6946C27.9627 17.7049 27.8077 17.459 27.7742 17.2232C27.5936 16.4208 27.1559 15.626 26.4006 15.2389C25.2411 14.6584 23.8967 14.6876 22.6324 14.6997C21.7093 14.7487 20.7168 14.8286 19.9348 15.3714C19.3345 15.7825 19.1522 16.6125 19.3664 17.2809C19.5684 17.7609 20.1225 17.9157 20.5758 18.0585C23.1871 18.7415 25.9543 18.6735 28.5157 19.5723C29.5762 19.9387 30.6136 20.651 30.9766 21.7613C31.4514 23.2495 31.2433 25.0283 30.1845 26.223C29.3259 27.2061 28.0754 27.7412 26.8281 28.0318C25.1689 28.4018 23.4469 28.4112 21.7619 28.2469C20.1775 28.0663 18.5286 27.65 17.3054 26.5704C16.2595 25.6622 15.7486 24.2472 15.7993 22.8814C15.8114 22.6507 16.0411 22.4899 16.2621 22.5088C16.8951 22.5037 17.5282 22.502 18.1613 22.5097C18.4142 22.4916 18.6017 22.7101 18.6147 22.9485C18.7315 23.7131 19.0188 24.5156 19.6855 24.9689C20.9723 25.799 22.5868 25.7421 24.0601 25.7654C25.2807 25.7112 26.6509 25.6948 27.647 24.8881C28.1725 24.4279 28.3282 23.6581 28.1862 22.9958C28.0324 22.4366 27.4474 22.1761 26.9451 22.0057C24.3672 21.1902 21.5692 21.4861 19.0163 20.564C17.9799 20.1977 16.9776 19.5052 16.5795 18.4404C16.0239 16.9335 16.2784 15.0695 17.4482 13.9151C18.5887 12.7669 20.2352 12.3247 21.8005 12.1664V12.1666Z" fill="#8CC84B"/>
</svg>
