<svg width="41" height="40" viewBox="0 0 41 40" fill="none" xmlns="http://www.w3.org/2000/svg">
<path d="M20.7058 0C10.4982 0 11.1355 4.42661 11.1355 4.42661L11.1469 9.01271H20.8878V10.3896H7.27793C7.27793 10.3896 0.746094 9.64879 0.746094 19.9482C0.746094 30.2478 6.44724 29.8826 6.44724 29.8826H9.84966V25.1031C9.84966 25.1031 9.66623 19.402 15.4598 19.402H25.121C25.121 19.402 30.549 19.4897 30.549 14.156V5.33712C30.549 5.33712 31.3734 0 20.7058 0ZM15.3346 3.08406C15.5648 3.08386 15.7928 3.12904 16.0055 3.21703C16.2182 3.30502 16.4114 3.4341 16.5742 3.59686C16.737 3.75963 16.866 3.95289 16.954 4.16559C17.042 4.37829 17.0872 4.60626 17.087 4.83644C17.0872 5.06663 17.042 5.29459 16.954 5.50729C16.866 5.72 16.737 5.91326 16.5742 6.07602C16.4114 6.23879 16.2182 6.36786 16.0055 6.45585C15.7928 6.54384 15.5648 6.58903 15.3346 6.58882C15.1044 6.58903 14.8765 6.54384 14.6638 6.45585C14.4511 6.36786 14.2578 6.23879 14.095 6.07602C13.9323 5.91326 13.8032 5.72 13.7152 5.50729C13.6272 5.29459 13.582 5.06663 13.5822 4.83644C13.582 4.60626 13.6272 4.37829 13.7152 4.16559C13.8032 3.95289 13.9323 3.75963 14.095 3.59686C14.2578 3.4341 14.4511 3.30502 14.6638 3.21703C14.8765 3.12904 15.1044 3.08386 15.3346 3.08406Z" fill="url(#paint0_linear_24_103)"/>
<path d="M20.9959 40.0004C31.2035 40.0004 30.5661 35.5738 30.5661 35.5738L30.5548 30.9879H20.8137V29.611H34.4235C34.4235 29.611 40.9554 30.3518 40.9554 20.0521C40.9554 9.75254 35.2542 10.1178 35.2542 10.1178H31.8518V14.8971C31.8518 14.8971 32.0352 20.5983 26.2417 20.5983H16.5804C16.5804 20.5983 11.1525 20.5106 11.1525 25.8444V34.6635C11.1525 34.6635 10.3282 40.0004 20.9957 40.0004H20.9959ZM26.367 36.9167C26.1368 36.9169 25.9089 36.8717 25.6962 36.7837C25.4835 36.6957 25.2902 36.5666 25.1274 36.4039C24.9647 36.2411 24.8356 36.0478 24.7476 35.8351C24.6596 35.6224 24.6144 35.3945 24.6146 35.1643C24.6144 34.9341 24.6596 34.7061 24.7475 34.4934C24.8355 34.2807 24.9646 34.0874 25.1274 33.9246C25.2901 33.7618 25.4834 33.6327 25.6961 33.5447C25.9088 33.4567 26.1368 33.4115 26.367 33.4118C26.5972 33.4115 26.8252 33.4567 27.0379 33.5447C27.2506 33.6327 27.4438 33.7618 27.6066 33.9246C27.7694 34.0873 27.8984 34.2806 27.9864 34.4933C28.0744 34.706 28.1196 34.934 28.1194 35.1641C28.1196 35.3943 28.0744 35.6223 27.9864 35.835C27.8984 36.0477 27.7694 36.241 27.6066 36.4037C27.4438 36.5665 27.2506 36.6956 27.0379 36.7835C26.8252 36.8715 26.5972 36.9167 26.367 36.9165V36.9167Z" fill="url(#paint1_linear_24_103)"/>
<defs>
<linearGradient id="paint0_linear_24_103" x1="4.61017" y1="3.59775" x2="24.5365" y2="23.3253" gradientUnits="userSpaceOnUse">
<stop stop-color="#387EB8"/>
<stop offset="1" stop-color="#366994"/>
</linearGradient>
<linearGradient id="paint1_linear_24_103" x1="16.8412" y1="16.2661" x2="38.2399" y2="36.4949" gradientUnits="userSpaceOnUse">
<stop stop-color="#FFE052"/>
<stop offset="1" stop-color="#FFC331"/>
</linearGradient>
</defs>
</svg>
